<?xml version="1.0" encoding="utf-8"?>
<!-- Generator: Adobe Illustrator 18.1.0, SVG Export Plug-In . SVG Version: 6.00 Build 0)  -->
<svg version="1.1" id="Layer_1" xmlns="http://www.w3.org/2000/svg" xmlns:xlink="http://www.w3.org/1999/xlink" x="0px" y="0px"
	 viewBox="0 0 640 195.9" enable-background="new 0 0 640 195.9" xml:space="preserve">
<path fill-rule="evenodd" clip-rule="evenodd" fill="#111111" d="M320,38.6c-10.6-8.5-25-21.3-58.7-25.6
	c-53.1-6.9-86.4,36.2-118.7,70.7C114.3,114,102,127.3,73,128.8c-40.5,2.1-52.5-29.1-24.8-44.7c27.7-15.6,45.4,19.2,45.4,19.2
	s5-60.3-53.2-50.4c-58.2,9.9-46.1,93,7.1,117.8c29.1,13.6,58,18.7,89.7,15.3c48.6-5.2,97.9-29.6,139.7-54.2
	c25.2-14.8,33.7-23,43.1-30.1c9.4,7.1,17.9,15.3,43.1,30.1c41.9,24.6,91.2,49,139.7,54.2c31.7,3.4,60.6-1.7,89.7-15.3
	c53.2-24.8,65.3-107.9,7.1-117.8c-58.2-9.9-53.2,50.4-53.2,50.4s17.7-34.8,45.4-19.2c27.7,15.6,15.6,46.9-24.8,44.7
	c-29.1-1.5-41.3-14.8-69.6-45.1C465.2,49.2,431.8,6.1,378.7,13C345,17.4,330.6,30.1,320,38.6L320,38.6z"/>
</svg>
